<svg width="140" height="31" viewBox="0 0 140 31" fill="none" xmlns="http://www.w3.org/2000/svg">
<path fill-rule="evenodd" clip-rule="evenodd" d="M17.7894 0.937822C15.6236 -0.312608 12.9552 -0.312607 10.7894 0.937822L3.5 5.14637C2.94263 5.46817 2.44034 5.86019 2.00169 6.30762H5.31217L8.22702 18.5431H8.37319L11.589 6.30762H15.0713L18.2785 18.5689H18.4333L21.3481 6.30762H25.4152L20.3765 23.9171H16.748L13.3946 12.4039H13.2571L9.9123 23.9171H6.28378L1.43313 6.96464C0.518268 8.16498 0 9.64987 0 11.2085V19.6256C0 22.1265 1.33419 24.4374 3.5 25.6878L10.7894 29.8964C12.9552 31.1468 15.6236 31.1468 17.7894 29.8964L25.0788 25.6878C25.7947 25.2745 26.4197 24.7453 26.9357 24.1318C26.4544 24.0889 26.0349 23.8912 25.6774 23.5388C25.2762 23.1318 25.0755 22.6445 25.0755 22.077C25.0755 21.5153 25.2762 21.0338 25.6774 20.6325C26.0844 20.2313 26.5717 20.0306 27.1391 20.0306C27.6593 20.0306 28.118 20.2099 28.5152 20.5683C28.5573 20.2584 28.5788 19.9435 28.5788 19.6256V11.2085C28.5788 8.70769 27.2446 6.3968 25.0788 5.14637L17.7894 0.937822Z" fill="#6A35C0"/>
<path d="M36.3995 21.917L32.9102 9.55336H35.3189L37.5465 18.6389H37.6612L40.0398 9.55336H42.2312L44.6158 18.645H44.7244L46.9521 9.55336H49.3608L45.8714 21.917H43.6619L41.1868 13.2419H41.0902L38.609 21.917H36.3995ZM53.976 22.0981C53.0463 22.0981 52.2434 21.9049 51.5673 21.5186C50.8952 21.1282 50.378 20.5768 50.0158 19.8644C49.6536 19.1481 49.4725 18.3049 49.4725 17.335C49.4725 16.3811 49.6536 15.544 50.0158 14.8236C50.382 14.0992 50.8932 13.5357 51.5492 13.1333C52.2052 12.7268 52.9759 12.5235 53.8613 12.5235C54.4328 12.5235 54.9721 12.6161 55.4792 12.8012C55.9904 12.9823 56.4411 13.2641 56.8315 13.6464C57.2259 14.0287 57.5358 14.5157 57.7612 15.1073C57.9866 15.6949 58.0993 16.3952 58.0993 17.2082V17.8783H50.4988V16.4053H56.0044C56.0004 15.9867 55.9099 15.6144 55.7328 15.2884C55.5557 14.9584 55.3082 14.6988 54.9902 14.5097C54.6763 14.3205 54.3101 14.2259 53.8915 14.2259C53.4448 14.2259 53.0524 14.3346 52.7143 14.5519C52.3762 14.7652 52.1126 15.047 51.9235 15.3971C51.7383 15.7432 51.6438 16.1235 51.6397 16.5381V17.824C51.6397 18.3633 51.7383 18.8261 51.9355 19.2124C52.1328 19.5948 52.4084 19.8886 52.7626 20.0938C53.1168 20.2951 53.5313 20.3957 54.0062 20.3957C54.3242 20.3957 54.6119 20.3514 54.8695 20.2629C55.1271 20.1703 55.3504 20.0355 55.5396 19.8584C55.7288 19.6813 55.8716 19.462 55.9682 19.2004L58.0087 19.4298C57.8799 19.9691 57.6344 20.44 57.2722 20.8424C56.914 21.2409 56.4552 21.5508 55.8958 21.7721C55.3364 21.9894 54.6964 22.0981 53.976 22.0981ZM67.2769 15.0953L65.2847 15.3126C65.2284 15.1114 65.1298 14.9222 64.9889 14.7451C64.8521 14.568 64.6669 14.4252 64.4335 14.3165C64.2001 14.2078 63.9143 14.1535 63.5763 14.1535C63.1215 14.1535 62.7391 14.2521 62.4292 14.4493C62.1234 14.6465 61.9724 14.9021 61.9765 15.216C61.9724 15.4856 62.0711 15.705 62.2723 15.874C62.4775 16.0431 62.8156 16.1819 63.2865 16.2906L64.8682 16.6286C65.7455 16.8178 66.3975 17.1176 66.8241 17.5281C67.2548 17.9387 67.4721 18.4759 67.4761 19.14C67.4721 19.7236 67.301 20.2387 66.963 20.6855C66.6289 21.1282 66.1641 21.4743 65.5684 21.7238C64.9728 21.9733 64.2886 22.0981 63.5159 22.0981C62.3809 22.0981 61.4674 21.8606 60.7751 21.3857C60.0829 20.9068 59.6704 20.2407 59.5376 19.3875L61.6686 19.1823C61.7652 19.6008 61.9704 19.9168 62.2844 20.1301C62.5983 20.3434 63.0068 20.45 63.5099 20.45C64.029 20.45 64.4456 20.3434 64.7595 20.1301C65.0774 19.9168 65.2364 19.6531 65.2364 19.3392C65.2364 19.0736 65.1338 18.8543 64.9285 18.6812C64.7273 18.5081 64.4134 18.3753 63.9868 18.2828L62.4051 17.9507C61.5157 17.7656 60.8576 17.4537 60.431 17.015C60.0044 16.5723 59.7931 16.0129 59.7971 15.3367C59.7931 14.7652 59.9481 14.2702 60.262 13.8517C60.5799 13.4291 61.0206 13.1031 61.5841 12.8737C62.1515 12.6402 62.8055 12.5235 63.5461 12.5235C64.6327 12.5235 65.488 12.7549 66.1118 13.2178C66.7396 13.6806 67.128 14.3064 67.2769 15.0953ZM73.9085 12.6443V14.3346H68.5779V12.6443H73.9085ZM69.8939 10.4227H72.0793V19.1279C72.0793 19.4217 72.1236 19.6471 72.2121 19.8041C72.3047 19.957 72.4254 20.0616 72.5743 20.118C72.7232 20.1743 72.8882 20.2025 73.0693 20.2025C73.2062 20.2025 73.3309 20.1924 73.4436 20.1723C73.5603 20.1522 73.6489 20.1341 73.7093 20.118L74.0775 21.8264C73.9608 21.8667 73.7938 21.911 73.5764 21.9593C73.3631 22.0075 73.1015 22.0357 72.7916 22.0438C72.2443 22.0599 71.7513 21.9774 71.3126 21.7963C70.8739 21.6111 70.5258 21.3254 70.2682 20.939C70.0146 20.5526 69.8899 20.0697 69.8939 19.4901V10.4227ZM82.5518 12.9521C82.4955 12.4249 82.258 12.0144 81.8395 11.7206C81.425 11.4268 80.8857 11.2799 80.2216 11.2799C79.7547 11.2799 79.3543 11.3503 79.0202 11.4912C78.6862 11.6321 78.4306 11.8232 78.2536 12.0647C78.0765 12.3062 77.9859 12.5819 77.9819 12.8918C77.9819 13.1494 78.0402 13.3727 78.157 13.5619C78.2777 13.751 78.4407 13.912 78.646 14.0448C78.8512 14.1736 79.0786 14.2823 79.3281 14.3708C79.5777 14.4594 79.8292 14.5338 80.0827 14.5942L81.2418 14.884C81.7087 14.9926 82.1574 15.1395 82.5881 15.3247C83.0227 15.5098 83.4111 15.7432 83.7532 16.0249C84.0993 16.3067 84.373 16.6468 84.5742 17.0452C84.7754 17.4436 84.8761 17.9105 84.8761 18.4458C84.8761 19.1702 84.6909 19.8081 84.3207 20.3595C83.9504 20.9068 83.4151 21.3354 82.7148 21.6453C82.0186 21.9512 81.1754 22.1041 80.1854 22.1041C79.2235 22.1041 78.3884 21.9552 77.68 21.6574C76.9757 21.3596 76.4244 20.9249 76.0259 20.3534C75.6315 19.7819 75.4182 19.0857 75.386 18.2646H77.5895C77.6217 18.6953 77.7545 19.0535 77.9879 19.3392C78.2214 19.625 78.5252 19.8383 78.8995 19.9791C79.2778 20.12 79.7004 20.1904 80.1673 20.1904C80.6542 20.1904 81.0808 20.118 81.4471 19.9731C81.8174 19.8242 82.1071 19.6189 82.3164 19.3573C82.5257 19.0917 82.6323 18.7818 82.6364 18.4276C82.6323 18.1057 82.5378 17.8401 82.3526 17.6308C82.1675 17.4175 81.9079 17.2404 81.5739 17.0995C81.2438 16.9546 80.8575 16.8258 80.4148 16.7132L79.0082 16.3509C77.9899 16.0893 77.185 15.6929 76.5934 15.1617C76.0058 14.6264 75.712 13.916 75.712 13.0306C75.712 12.3022 75.9092 11.6643 76.3036 11.1169C76.7021 10.5696 77.2434 10.145 77.9276 9.84313C78.6117 9.53726 79.3865 9.38432 80.2518 9.38432C81.1291 9.38432 81.8978 9.53726 82.5579 9.84313C83.2219 10.145 83.7431 10.5655 84.1214 11.1048C84.4998 11.6401 84.695 12.2559 84.707 12.9521H82.5518ZM91.4065 12.6443V14.3346H86.0759V12.6443H91.4065ZM87.392 10.4227H89.5773V19.1279C89.5773 19.4217 89.6216 19.6471 89.7101 19.8041C89.8027 19.957 89.9234 20.0616 90.0724 20.118C90.2213 20.1743 90.3863 20.2025 90.5674 20.2025C90.7042 20.2025 90.829 20.1924 90.9417 20.1723C91.0584 20.1522 91.1469 20.1341 91.2073 20.118L91.5756 21.8264C91.4588 21.8667 91.2918 21.911 91.0745 21.9593C90.8612 22.0075 90.5996 22.0357 90.2897 22.0438C89.7423 22.0599 89.2493 21.9774 88.8106 21.7963C88.372 21.6111 88.0238 21.3254 87.7662 20.939C87.5127 20.5526 87.3879 20.0697 87.392 19.4901V10.4227ZM95.9025 22.1041C95.3149 22.1041 94.7857 21.9995 94.3148 21.7902C93.848 21.5769 93.4777 21.263 93.204 20.8485C92.9344 20.4339 92.7995 19.9228 92.7995 19.3151C92.7995 18.7919 92.8961 18.3592 93.0893 18.0171C93.2825 17.675 93.5461 17.4014 93.8801 17.1961C94.2142 16.9909 94.5905 16.8359 95.0091 16.7313C95.4316 16.6226 95.8683 16.5441 96.3191 16.4958C96.8624 16.4395 97.3031 16.3892 97.6412 16.3449C97.9792 16.2966 98.2247 16.2242 98.3777 16.1276C98.5346 16.027 98.6131 15.872 98.6131 15.6627V15.6265C98.6131 15.1717 98.4783 14.8196 98.2086 14.57C97.939 14.3205 97.5506 14.1958 97.0435 14.1958C96.5082 14.1958 96.0836 14.3125 95.7697 14.5459C95.4598 14.7793 95.2505 15.055 95.1419 15.373L93.1014 15.0832C93.2624 14.5197 93.528 14.0489 93.8983 13.6705C94.2685 13.2882 94.7213 13.0025 95.2566 12.8133C95.7918 12.6201 96.3835 12.5235 97.0314 12.5235C97.4782 12.5235 97.9229 12.5758 98.3656 12.6805C98.8083 12.7851 99.2128 12.9582 99.579 13.1997C99.9453 13.4371 100.239 13.7611 100.46 14.1716C100.686 14.5821 100.798 15.0953 100.798 15.711V21.917H98.6976V20.6432H98.6252C98.4924 20.9008 98.3052 21.1423 98.0637 21.3676C97.8263 21.589 97.5265 21.7681 97.1642 21.9049C96.806 22.0377 96.3855 22.1041 95.9025 22.1041ZM96.47 20.4983C96.9087 20.4983 97.289 20.4118 97.611 20.2387C97.9329 20.0616 98.1805 19.8282 98.3535 19.5384C98.5306 19.2487 98.6191 18.9327 98.6191 18.5906V17.498C98.5507 17.5543 98.434 17.6066 98.269 17.6549C98.108 17.7032 97.9269 17.7455 97.7257 17.7817C97.5244 17.8179 97.3252 17.8501 97.128 17.8783C96.9308 17.9065 96.7598 17.9306 96.6149 17.9507C96.2889 17.995 95.9971 18.0674 95.7395 18.1681C95.4819 18.2687 95.2787 18.4095 95.1298 18.5906C94.9809 18.7677 94.9064 18.9971 94.9064 19.2789C94.9064 19.6813 95.0533 19.9852 95.3471 20.1904C95.6409 20.3957 96.0152 20.4983 96.47 20.4983ZM102.996 21.917V12.6443H105.115V14.1897H105.211C105.381 13.6544 105.67 13.2419 106.081 12.9521C106.495 12.6584 106.968 12.5115 107.499 12.5115C107.62 12.5115 107.755 12.5175 107.904 12.5296C108.057 12.5376 108.184 12.5517 108.284 12.5718V14.5821C108.192 14.5499 108.045 14.5218 107.844 14.4976C107.646 14.4694 107.455 14.4553 107.27 14.4553C106.872 14.4553 106.513 14.5419 106.195 14.7149C105.882 14.884 105.634 15.1194 105.453 15.4213C105.272 15.7231 105.181 16.0712 105.181 16.4656V21.917H102.996ZM114.05 21.917V9.55336H118.686C119.636 9.55336 120.433 9.73044 121.077 10.0846C121.724 10.4388 122.213 10.9258 122.544 11.5455C122.878 12.1613 123.045 12.8616 123.045 13.6464C123.045 14.4392 122.878 15.1436 122.544 15.7593C122.209 16.3751 121.716 16.8601 121.064 17.2142C120.412 17.5644 119.61 17.7394 118.656 17.7394H115.583V15.8982H118.354C118.909 15.8982 119.364 15.8016 119.718 15.6084C120.072 15.4152 120.334 15.1496 120.503 14.8115C120.676 14.4735 120.763 14.0851 120.763 13.6464C120.763 13.2077 120.676 12.8213 120.503 12.4873C120.334 12.1533 120.07 11.8937 119.712 11.7085C119.358 11.5194 118.901 11.4248 118.342 11.4248H116.289V21.917H114.05ZM127.079 16.4838V21.917H124.893V9.55336H127.03V14.2199H127.139C127.356 13.6967 127.693 13.2842 128.147 12.9823C128.606 12.6765 129.19 12.5235 129.898 12.5235C130.542 12.5235 131.103 12.6584 131.582 12.928C132.061 13.1976 132.431 13.5921 132.693 14.1112C132.959 14.6304 133.092 15.2643 133.092 16.0129V21.917H130.906V16.3509C130.906 15.7271 130.745 15.2422 130.423 14.896C130.105 14.5459 129.659 14.3708 129.083 14.3708C128.697 14.3708 128.351 14.4553 128.045 14.6244C127.743 14.7894 127.505 15.0289 127.332 15.3428C127.163 15.6567 127.079 16.037 127.079 16.4838ZM136.665 22.0498C136.299 22.0498 135.985 21.921 135.724 21.6634C135.462 21.4059 135.333 21.0919 135.337 20.7217C135.333 20.3595 135.462 20.0496 135.724 19.792C135.985 19.5344 136.299 19.4056 136.665 19.4056C137.02 19.4056 137.327 19.5344 137.589 19.792C137.855 20.0496 137.989 20.3595 137.994 20.7217C137.989 20.9672 137.925 21.1905 137.8 21.3918C137.68 21.593 137.519 21.754 137.317 21.8747C137.12 21.9914 136.903 22.0498 136.665 22.0498Z" fill="black"/>
</svg>
